<?xml version="1.0" encoding="UTF-8" standalone="no"?>
<!-- Created with Inkscape (http://www.inkscape.org/) -->

<svg
   xmlns:dc="http://purl.org/dc/elements/1.1/"
   xmlns:cc="http://creativecommons.org/ns#"
   xmlns:rdf="http://www.w3.org/1999/02/22-rdf-syntax-ns#"
   xmlns:svg="http://www.w3.org/2000/svg"
   xmlns="http://www.w3.org/2000/svg"
   xmlns:sodipodi="http://sodipodi.sourceforge.net/DTD/sodipodi-0.dtd"
   xmlns:inkscape="http://www.inkscape.org/namespaces/inkscape"
   width="130.80595mm"
   height="83.97094mm"
   viewBox="0 0 130.80596 83.970939"
   version="1.1"
   id="svg8"
   inkscape:version="0.92.4 (5da689c313, 2019-01-14)"
   sodipodi:docname="joystick_body_black.svg">
  <defs
     id="defs2" />
  <sodipodi:namedview
     id="base"
     pagecolor="#ffffff"
     bordercolor="#666666"
     borderopacity="1.0"
     inkscape:pageopacity="0.0"
     inkscape:pageshadow="2"
     inkscape:zoom="0.98994949"
     inkscape:cx="264.91047"
     inkscape:cy="87.809273"
     inkscape:document-units="mm"
     inkscape:current-layer="layer1"
     showgrid="false"
     fit-margin-top="0"
     fit-margin-left="0"
     fit-margin-right="0"
     fit-margin-bottom="0"
     inkscape:window-width="1920"
     inkscape:window-height="1001"
     inkscape:window-x="2391"
     inkscape:window-y="-9"
     inkscape:window-maximized="1" />
  <metadata
     id="metadata5">
    <rdf:RDF>
      <cc:Work
         rdf:about="">
        <dc:format>image/svg+xml</dc:format>
        <dc:type
           rdf:resource="http://purl.org/dc/dcmitype/StillImage" />
        <dc:title></dc:title>
      </cc:Work>
    </rdf:RDF>
  </metadata>
  <g
     inkscape:label="Layer 1"
     inkscape:groupmode="layer"
     id="layer1"
     transform="translate(5.9324322e-5,-213.02906)">
    <g
       id="g4564"
       transform="translate(1.9797172,-11.202252)">
      <path
         style="stroke-width:0.26458332"
         id="path10"
         d="m 101.83654,237.05566 c 0.12647,-0.4064 0.21378,-0.82894 0.21378,-1.27582 0,-2.38839 -1.9431,-4.33149 -4.331491,-4.33149 H 43.66181 c -2.388394,0 -4.331494,1.9431 -4.331494,4.33149 0,0.44688 0.08758,0.86942 0.213783,1.27582 z"
         inkscape:connector-curvature="0" />
      <path
         id="path12"
         transform="matrix(0.26458333,0,0,0.26458333,-5.9318107e-5,224.23131)"
         d="m 142.84961,54.591797 c -11.353,0 -20.58789,9.23487 -20.58789,20.587891 0,2.583004 0.53239,5.036506 1.40039,7.3125 h -3.1875 -3.18945 -11.68164 c 1.40798,-6.896996 -2.41239,-15.042969 -11.525395,-15.042969 -9.113,0 -12.931436,8.145973 -11.523437,15.042969 H 65.167969 c -9.78,0 -17.710938,7.931939 -17.710938,17.710932 0.163555,15.98417 0.184326,34.88954 0.154297,52.75782 -6.693553,2.04049 -16.424299,5.69024 -25.886719,11.71094 -8.397177,5.34292 -16.8727012,12.71369 -22.60351525,23.00976 -5.73081415,10.29608 -8.30519895,23.51039 -5.40234375,38.35547 2.5682002,13.13363 10.9523843,24.09928 22.322266,32.84961 11.369881,8.75029 25.93476,15.72261 42.992187,21.68164 34.114855,11.91806 78.392437,19.67528 126.636717,25.00195 96.48856,10.65336 208.73321,11.29189 281.95899,11.79688 a 10.517587,10.517587 0 1 0 0.14648,-21.03125 C 394.52909,295.8308 282.78461,295.13143 187.98047,284.66406 140.5784,279.43036 97.377514,271.68226 65.972656,260.71094 50.270227,255.22526 37.562935,248.90802 28.871094,242.21875 20.179253,235.52948 15.708495,228.90932 14.357422,222 c -2.054359,-10.50588 -0.342829,-17.83296 3.138672,-24.08789 3.481502,-6.25489 9.151107,-11.44453 15.515625,-15.49414 4.907708,-3.12265 10.050774,-5.46455 14.527343,-7.17188 -0.0321,8.77422 -0.06254,19.01314 -0.08398,25.33008 0,9.77998 7.933892,17.71289 17.712891,17.71289 H 469.19141 c 9.77896,0 17.71093,-7.93291 17.71093,-17.71289 V 100.20898 c 0,-9.785986 -7.93197,-17.716792 -17.71093,-17.716792 h -52.125 -3.18164 -3.19532 c 0.875,-2.282986 1.40235,-4.729496 1.40235,-7.3125 0,-11.353021 -9.23487,-20.587891 -20.58789,-20.587891 h -2.65039 -3.47657 -3.95898 -228.48438 -3.95898 -3.47656 z"
         style="fill:#000000;stroke-width:0.99999994"
         inkscape:connector-curvature="0" />
      <path
         id="path122"
         d="M 63.351837,224.23131 H 52.491485 c -1.912409,0 -3.461809,1.54966 -3.461809,3.46181 0,0.81121 0.289984,1.54648 0.75618,2.13571 h 41.809193 c 0.46646,-0.58949 0.75618,-1.32609 0.75618,-2.13571 0,-1.91241 -1.54967,-3.46181 -3.46207,-3.46181 h -12.30816"
         style="stroke-width:0.26458332"
         inkscape:connector-curvature="0" />
      <g
         transform="matrix(0.26458333,0,0,0.26458333,23.504774,92.787167)"
         id="g20" />
      <g
         transform="matrix(0.26458333,0,0,0.26458333,23.504774,92.787167)"
         id="g22" />
      <g
         transform="matrix(0.26458333,0,0,0.26458333,23.504774,92.787167)"
         id="g24" />
      <g
         transform="matrix(0.26458333,0,0,0.26458333,23.504774,92.787167)"
         id="g26" />
      <g
         transform="matrix(0.26458333,0,0,0.26458333,23.504774,92.787167)"
         id="g28" />
      <g
         transform="matrix(0.26458333,0,0,0.26458333,23.504774,92.787167)"
         id="g30" />
      <g
         transform="matrix(0.26458333,0,0,0.26458333,23.504774,92.787167)"
         id="g32" />
      <g
         transform="matrix(0.26458333,0,0,0.26458333,23.504774,92.787167)"
         id="g34" />
      <g
         transform="matrix(0.26458333,0,0,0.26458333,23.504774,92.787167)"
         id="g36" />
      <g
         transform="matrix(0.26458333,0,0,0.26458333,23.504774,92.787167)"
         id="g38" />
      <g
         transform="matrix(0.26458333,0,0,0.26458333,23.504774,92.787167)"
         id="g40" />
      <g
         transform="matrix(0.26458333,0,0,0.26458333,23.504774,92.787167)"
         id="g42" />
      <g
         transform="matrix(0.26458333,0,0,0.26458333,23.504774,92.787167)"
         id="g44" />
      <g
         transform="matrix(0.26458333,0,0,0.26458333,23.504774,92.787167)"
         id="g46" />
      <g
         transform="matrix(0.26458333,0,0,0.26458333,23.504774,92.787167)"
         id="g48" />
    </g>
  </g>
</svg>
