<?xml version="1.0" encoding="UTF-8" standalone="no"?>
<!-- Created with Inkscape (http://www.inkscape.org/) -->

<svg
   xmlns:dc="http://purl.org/dc/elements/1.1/"
   xmlns:cc="http://creativecommons.org/ns#"
   xmlns:rdf="http://www.w3.org/1999/02/22-rdf-syntax-ns#"
   xmlns:svg="http://www.w3.org/2000/svg"
   xmlns="http://www.w3.org/2000/svg"
   xmlns:sodipodi="http://sodipodi.sourceforge.net/DTD/sodipodi-0.dtd"
   xmlns:inkscape="http://www.inkscape.org/namespaces/inkscape"
   width="39.262562mm"
   height="93.474472mm"
   viewBox="0 0 39.262562 93.474472"
   version="1.1"
   id="svg8"
   inkscape:version="0.92.4 (5da689c313, 2019-01-14)"
   sodipodi:docname="joystick_lever_black.svg">
  <defs
     id="defs2" />
  <sodipodi:namedview
     id="base"
     pagecolor="#ffffff"
     bordercolor="#666666"
     borderopacity="1.0"
     inkscape:pageopacity="0.0"
     inkscape:pageshadow="2"
     inkscape:zoom="0.35"
     inkscape:cx="-77.142857"
     inkscape:cy="560"
     inkscape:document-units="mm"
     inkscape:current-layer="layer1"
     showgrid="false"
     fit-margin-top="0"
     fit-margin-left="0"
     fit-margin-right="0"
     fit-margin-bottom="0"
     inkscape:window-width="2400"
     inkscape:window-height="1271"
     inkscape:window-x="-9"
     inkscape:window-y="-9"
     inkscape:window-maximized="1" />
  <metadata
     id="metadata5">
    <rdf:RDF>
      <cc:Work
         rdf:about="">
        <dc:format>image/svg+xml</dc:format>
        <dc:type
           rdf:resource="http://purl.org/dc/dcmitype/StillImage" />
        <dc:title></dc:title>
      </cc:Work>
    </rdf:RDF>
  </metadata>
  <g
     inkscape:label="Layer 1"
     inkscape:groupmode="layer"
     id="layer1"
     transform="translate(-1.4476954e-8,-203.52553)">
    <path
       inkscape:connector-curvature="0"
       style="fill:#000000;stroke-width:0.26458332"
       d="M 23.710973,203.95841 C 13.108653,201.70481 2.6855635,208.47342 0.43191345,219.076 -1.6705765,228.97712 4.0973035,238.71681 13.504143,241.7972 l -0.0879,55.09812 12.94008,0.10468 0.1,-55.45952 c 6.08513,-2.26572 10.92368,-7.48313 12.37336,-14.30333 2.25359,-10.60231 -4.51484,-21.02482 -15.11871,-23.27874 z m 3.19583,8.9225 c 0.44654,0.0721 0.89808,0.26657 1.326,0.61416 4.67691,3.79832 5.11384,10.54292 1.71828,15.2873 -2.05355,2.86948 -6.09206,-0.84709 -4.05569,-3.69169 1.72636,-2.41425 0.79999,-5.78911 -1.35458,-7.53842 -2.31652,-1.88231 -0.0454,-5.06039 2.36599,-4.67135 z"
       id="path120-7"
       sodipodi:nodetypes="scccccsscccccc" />
  </g>
</svg>
