<?xml version="1.0" encoding="utf-8"?>
<!-- Generator: Adobe Illustrator 16.0.0, SVG Export Plug-In . SVG Version: 6.00 Build 0)  -->
<!DOCTYPE svg PUBLIC "-//W3C//DTD SVG 1.1//EN" "http://www.w3.org/Graphics/SVG/1.1/DTD/svg11.dtd">
<svg version="1.1" id="Layer_1" xmlns="http://www.w3.org/2000/svg" xmlns:xlink="http://www.w3.org/1999/xlink" x="0px" y="0px"
	 width="500px" height="103.707px" viewBox="0 0 500 103.707" enable-background="new 0 0 500 103.707" xml:space="preserve">
<g>
	<g>
		<g>
			<path fill="#FFFFFF" d="M76.717,58.574c0.077-0.314,0.154-0.603,0.154-0.957c0-1.815-1.468-3.272-3.263-3.272H32.894
				c-1.816,0-3.274,1.457-3.274,3.272c0,0.354,0.067,0.643,0.171,0.957H76.717z"/>
			<path fill="#FFFFFF" d="M93.511,65.357H81.852c0.174-0.454,0.277-0.942,0.277-1.458c0-2.266-1.834-4.097-4.111-4.097H28.467
				c-2.269,0-4.095,1.831-4.095,4.097c0,0.516,0.083,1.008,0.283,1.458h-3.612c0.267-1.367-0.484-2.991-2.292-2.991
				c-1.836,0-2.576,1.624-2.316,2.991h-3.427c-1.957,0-3.56,1.602-3.56,3.549v12.438c-9.539,2.014-13.252,12.432-4.505,19.236
				c4.561,3.562,9.769,3.327,15.203,3.127c1.084-0.046,3.019-0.059,4.04,0c0.652-1.81,4.733-3.244,6.112-4.565
				c-5.594,0-9.651-0.361-13.153-0.291c-2.234,0.022-4.398-0.282-6.564-0.842c-6.887-1.768-7.054-9.705-1.133-11.656v2.54
				c0,1.948,1.603,3.542,3.56,3.542h80.504c1.953,0,3.522-1.594,3.522-3.542V68.906C97.034,66.958,95.464,65.357,93.511,65.357z"/>
			<path fill="#FFFFFF" d="M43.659,29.487l4.069,19.442H39.54c-1.455,0-2.615,1.154-2.615,2.594c0,0.627,0.215,1.161,0.579,1.599
				H68.99c0.357-0.438,0.575-0.972,0.575-1.599c0-1.439-1.162-2.594-2.605-2.594h-9.268l-4.534-21.663
				c4.132-2.619,6.868-7.229,6.868-12.493C60.025,6.627,53.412,0,45.247,0c-8.152,0-14.772,6.627-14.772,14.774
				C30.476,22.411,36.242,28.68,43.659,29.487z M50.067,6.316c4.052,2.056,5.431,6.957,3.664,11.006
				c-1.062,2.436-4.62,0.311-3.551-2.111c0.879-2.026-0.331-4.388-2.183-5.34C45.614,8.66,47.711,5.105,50.067,6.316z"/>
		</g>
	</g>
	<g>
		<path fill="#FFFFFF" d="M157.928,18.666V63.33c-0.029,6.196-1.979,11.266-5.842,15.206c-3.866,3.94-9.106,6.151-15.724,6.635
			l-2.3,0.089c-7.191,0-12.921-1.941-17.191-5.82c-4.271-3.878-6.437-9.22-6.497-16.019V18.666h8.572v44.486
			c0,4.753,1.308,8.445,3.926,11.076c2.617,2.635,6.347,3.948,11.19,3.948c4.901,0,8.653-1.307,11.256-3.928
			c2.601-2.615,3.902-6.299,3.902-11.051V18.666H157.928z"/>
		<path fill="#FFFFFF" d="M178.186,35.539l0.271,6.136c3.729-4.692,8.602-7.038,14.618-7.038c10.317,0,15.52,5.818,15.611,17.461
			v32.258h-8.346V52.052c-0.031-3.519-0.835-6.121-2.414-7.805c-1.58-1.685-4.038-2.527-7.378-2.527
			c-2.706,0-5.082,0.722-7.129,2.166c-2.046,1.444-3.639,3.338-4.781,5.686v34.785h-8.348V35.539H178.186z"/>
		<path fill="#FFFFFF" d="M229.169,35.539l0.27,6.136c3.73-4.692,8.602-7.038,14.619-7.038c10.317,0,15.521,5.818,15.61,17.461
			v32.258h-8.345V52.052c-0.031-3.519-0.836-6.121-2.414-7.805c-1.58-1.685-4.039-2.527-7.378-2.527
			c-2.707,0-5.083,0.722-7.129,2.166c-2.046,1.444-3.638,3.338-4.782,5.686v34.785h-8.347V35.539H229.169z"/>
		<path fill="#FFFFFF" d="M302.395,84.356c-0.479-0.96-0.871-2.677-1.172-5.143c-3.879,4.033-8.511,6.046-13.895,6.046
			c-4.812,0-8.76-1.358-11.843-4.085c-3.084-2.72-4.626-6.17-4.626-10.354c0-5.083,1.933-9.031,5.798-11.844
			c3.865-2.812,9.302-4.218,16.31-4.218h8.12v-3.835c0-2.917-0.87-5.242-2.615-6.97c-1.743-1.731-4.316-2.595-7.715-2.595
			c-2.976,0-5.476,0.753-7.488,2.257c-2.017,1.504-3.024,3.323-3.024,5.458h-8.392c0-2.436,0.862-4.79,2.595-7.061
			c1.729-2.271,4.075-4.068,7.037-5.392c2.963-1.322,6.219-1.984,9.768-1.984c5.626,0,10.032,1.406,13.221,4.218
			c3.187,2.813,4.844,6.686,4.964,11.618v22.469c0,4.484,0.57,8.045,1.713,10.693v0.721H302.395z M288.545,77.996
			c2.615,0,5.1-0.677,7.446-2.029c2.344-1.357,4.043-3.115,5.096-5.28V60.669h-6.539c-10.231,0-15.339,2.993-15.339,8.979
			c0,2.616,0.868,4.662,2.616,6.135C283.566,77.256,285.806,77.996,288.545,77.996z"/>
		<path fill="#FFFFFF" d="M330.369,35.539l0.227,5.415c3.577-4.211,8.408-6.316,14.48-6.316c6.831,0,11.477,2.615,13.944,7.851
			c1.621-2.348,3.735-4.242,6.339-5.685c2.6-1.444,5.674-2.166,9.226-2.166c10.706,0,16.152,5.669,16.333,17.009v32.709h-8.347
			V52.143c0-3.489-0.796-6.099-2.393-7.828c-1.595-1.73-4.269-2.595-8.03-2.595c-3.096,0-5.669,0.925-7.715,2.774
			c-2.046,1.851-3.234,4.34-3.564,7.467v32.394h-8.392V52.368c0-7.098-3.474-10.648-10.425-10.648
			c-5.471,0-9.218,2.331-11.234,6.993v35.643h-8.346V35.539H330.369z"/>
		<path fill="#FFFFFF" d="M423.765,85.259c-6.616,0-12.004-2.174-16.154-6.52c-4.15-4.345-6.226-10.158-6.226-17.438v-1.535
			c0-4.84,0.927-9.164,2.775-12.97c1.851-3.805,4.436-6.782,7.762-8.933c3.322-2.151,6.922-3.226,10.804-3.226
			c6.348,0,11.279,2.09,14.799,6.27c3.521,4.182,5.279,10.168,5.279,17.958v3.475h-33.069c0.116,4.81,1.525,8.701,4.214,11.66
			c2.693,2.966,6.116,4.448,10.267,4.448c2.949,0,5.441-0.602,7.487-1.807c2.048-1.204,3.838-2.796,5.371-4.783l5.1,3.972
			C438.081,82.117,431.943,85.259,423.765,85.259z M422.726,41.495c-3.37,0-6.196,1.226-8.482,3.676
			c-2.285,2.453-3.699,5.89-4.24,10.31h24.451v-0.632c-0.239-4.24-1.382-7.526-3.424-9.857
			C428.984,42.66,426.216,41.495,422.726,41.495z"/>
		<path fill="#FFFFFF" d="M450.428,59.542c0-7.489,1.774-13.512,5.325-18.069c3.549-4.558,8.195-6.835,13.944-6.835
			c5.711,0,10.24,1.955,13.577,5.864V15.055h8.347v69.301h-7.666l-0.409-5.234c-3.34,4.092-7.986,6.138-13.94,6.138
			c-5.657,0-10.265-2.317-13.829-6.946c-3.564-4.634-5.349-10.677-5.349-18.14V59.542z M458.774,60.489
			c0,5.534,1.146,9.867,3.431,12.993c2.287,3.129,5.446,4.694,9.473,4.694c5.298,0,9.162-2.376,11.597-7.129V48.624
			c-2.495-4.604-6.331-6.904-11.506-6.904c-4.088,0-7.276,1.578-9.563,4.738C459.92,49.616,458.774,54.293,458.774,60.489z"/>
	</g>
	<g>
		<path fill="#FFFFFF" d="M496.685,103.707H23.739c-1.831,0-3.315-1.023-3.315-2.282c0-1.26,1.484-2.283,3.315-2.283h472.946
			c1.829,0,3.315,1.023,3.315,2.283C500,102.683,498.514,103.707,496.685,103.707z"/>
	</g>
</g>
</svg>
