<?xml version="1.0" encoding="UTF-8" standalone="no"?>
<!-- Generator: Adobe Illustrator 16.0.0, SVG Export Plug-In . SVG Version: 6.00 Build 0)  -->

<svg
   xmlns:dc="http://purl.org/dc/elements/1.1/"
   xmlns:cc="http://creativecommons.org/ns#"
   xmlns:rdf="http://www.w3.org/1999/02/22-rdf-syntax-ns#"
   xmlns:svg="http://www.w3.org/2000/svg"
   xmlns="http://www.w3.org/2000/svg"
   xmlns:sodipodi="http://sodipodi.sourceforge.net/DTD/sodipodi-0.dtd"
   xmlns:inkscape="http://www.inkscape.org/namespaces/inkscape"
   version="1.1"
   id="Capa_1"
   x="0px"
   y="0px"
   width="2384.6357"
   height="539.04407"
   viewBox="0 0 2384.6358 539.04408"
   xml:space="preserve"
   sodipodi:docname="logo.svg"
   inkscape:version="0.92.4 (5da689c313, 2019-01-14)"><metadata
   id="metadata47"><rdf:RDF><cc:Work
       rdf:about=""><dc:format>image/svg+xml</dc:format><dc:type
         rdf:resource="http://purl.org/dc/dcmitype/StillImage" /><dc:title></dc:title></cc:Work></rdf:RDF></metadata><defs
   id="defs45">
	

		
		
		
	</defs><sodipodi:namedview
   pagecolor="#ffffff"
   bordercolor="#666666"
   borderopacity="1"
   objecttolerance="10"
   gridtolerance="10"
   guidetolerance="10"
   inkscape:pageopacity="0"
   inkscape:pageshadow="2"
   inkscape:window-width="2400"
   inkscape:window-height="1271"
   id="namedview43"
   showgrid="false"
   fit-margin-top="0"
   fit-margin-left="0"
   fit-margin-right="0"
   fit-margin-bottom="0"
   inkscape:zoom="0.20767958"
   inkscape:cx="513.22858"
   inkscape:cy="-439.74947"
   inkscape:window-x="-9"
   inkscape:window-y="-9"
   inkscape:window-maximized="1"
   inkscape:current-layer="Capa_1" />
















<g
   id="g995"
   transform="translate(-88.097656)"
   style="fill:#ffffff"><path
     inkscape:connector-curvature="0"
     id="path2"
     d="m 425.535,293.943 c 0.478,-1.536 0.808,-3.133 0.808,-4.822 0,-9.027 -7.344,-16.371 -16.371,-16.371 h -204.31 c -9.027,0 -16.371,7.344 -16.371,16.371 0,1.689 0.331,3.286 0.808,4.822 z"
     style="fill:#ffffff" /><path
     id="path4"
     d="m 183.49023,300.06445 c -11.353,0 -20.58789,9.23489 -20.58789,20.58789 0,2.583 0.53239,5.0365 1.40039,7.3125 h -3.1875 -3.1875 -11.68359 c 1.408,-6.897 -2.41044,-15.04296 -11.52344,-15.04296 -9.113,0 -12.93339,8.14596 -11.52539,15.04296 h -17.38672 c -9.779996,0 -17.710934,7.93194 -17.710934,17.71094 0,35.80716 3e-5,66.91667 3e-5,100.375 0,9.78 7.931938,17.71094 17.710934,17.71094 h 404.02344 c 9.779,0 17.71094,-7.93094 17.71094,-17.71094 V 345.68164 c 0,-9.786 -7.93194,-17.7168 -17.71094,-17.7168 h -52.125 -3.18164 -3.19531 c 0.875,-2.283 1.40234,-4.7295 1.40234,-7.3125 0,-11.353 -9.23489,-20.58789 -20.58789,-20.58789 h -2.65039 -3.47656 -3.95899 -228.48437 -3.95899 -3.47461 z"
     inkscape:connector-curvature="0"
     style="fill:#ffffff"
     sodipodi:nodetypes="ssccccscsccssssscccssccccccs" /><path
     inkscape:connector-curvature="0"
     id="path6"
     d="m 259.683,147.908 20.398,97.565 h -41.047 c -7.228,0 -13.084,5.857 -13.084,13.084 0,3.066 1.096,5.845 2.858,8.072 h 158.019 c 1.763,-2.228 2.858,-5.012 2.858,-8.072 0,-7.228 -5.857,-13.084 -13.085,-13.084 H 330.081 L 307.364,136.782 C 328.08,123.624 341.868,100.533 341.868,74.18 341.868,33.213 308.655,0 267.682,0 c -40.967,0 -74.181,33.213 -74.181,74.181 0.007,38.256 28.985,69.731 66.182,73.727 z m 32.21,-116.206 c 20.275,10.367 27.191,34.958 18.366,55.166 -5.337,12.222 -23.188,1.659 -17.895,-10.459 4.485,-10.282 -1.591,-22.032 -10.931,-26.806 -11.903,-6.09 -1.413,-23.973 10.46,-17.901 z"
     style="fill:#ffffff" /><g
     id="g12"
     style="fill:#ffffff">
</g><g
     id="g14"
     style="fill:#ffffff">
</g><g
     id="g16"
     style="fill:#ffffff">
</g><g
     id="g18"
     style="fill:#ffffff">
</g><g
     id="g20"
     style="fill:#ffffff">
</g><g
     id="g22"
     style="fill:#ffffff">
</g><g
     id="g24"
     style="fill:#ffffff">
</g><g
     id="g26"
     style="fill:#ffffff">
</g><g
     id="g28"
     style="fill:#ffffff">
</g><g
     id="g30"
     style="fill:#ffffff">
</g><g
     id="g32"
     style="fill:#ffffff">
</g><g
     id="g34"
     style="fill:#ffffff">
</g><g
     id="g36"
     style="fill:#ffffff">
</g><g
     id="g38"
     style="fill:#ffffff">
</g><g
     id="g40"
     style="fill:#ffffff">
</g><path
     d="m 731.46968,120.79614 h 66.28335 v 222.71207 q 0,30.71128 -13.69856,54.35235 -13.47762,23.42012 -38.22341,36.2349 -24.74578,12.81477 -55.89896,12.81477 -51.03817,0 -79.54002,-25.8505 -28.50184,-26.07145 -28.50184,-73.57453 h 66.72524 q 0,23.64107 9.94251,34.90924 9.9425,11.26817 31.37411,11.26817 19.00124,0 30.26941,-13.03573 11.26817,-13.03573 11.26817,-37.11867 z"
     style="font-style:normal;font-variant:normal;font-weight:bold;font-stretch:normal;font-size:374.13827515px;line-height:1.25;font-family:Roboto;-inkscape-font-specification:'Roboto Bold';letter-spacing:0px;word-spacing:0px;fill:#ffffff;fill-opacity:1;stroke:none;stroke-width:11.31235981"
     id="path865"
     inkscape:connector-curvature="0" /><path
     d="m 840.39532,320.75091 q 0,-35.57205 13.69856,-63.41107 13.69855,-27.839 39.32812,-43.08417 25.85051,-15.24518 59.87596,-15.24518 48.38684,0 78.87714,29.60657 30.7114,29.60656 34.2464,80.42381 l 0.4419,16.34988 q 0,55.01518 -30.7112,88.37781 -30.7113,33.14167 -82.41235,33.14167 -51.70102,0 -82.63325,-33.14167 -30.71128,-33.14168 -30.71128,-90.14536 z m 63.85296,4.63984 q 0,34.02546 12.81478,52.1429 12.81478,17.89651 36.67679,17.89651 23.19918,0 36.23489,-17.67555 13.03576,-17.89651 13.03576,-57.0037 0,-33.36262 -13.03576,-51.70101 -13.03571,-18.33839 -36.67678,-18.33839 -23.42012,0 -36.2349,18.33839 -12.81478,18.11746 -12.81478,56.34085 z"
     style="font-style:normal;font-variant:normal;font-weight:bold;font-stretch:normal;font-size:374.13827515px;line-height:1.25;font-family:Roboto;-inkscape-font-specification:'Roboto Bold';letter-spacing:0px;word-spacing:0px;fill:#ffffff;fill-opacity:1;stroke:none;stroke-width:11.31235981"
     id="path867"
     inkscape:connector-curvature="0" /><path
     d="m 1192.3599,352.12504 44.189,-148.69565 h 68.4927 l -96.1108,276.18064 -5.3028,12.59383 q -21.4315,46.84023 -70.7022,46.84023 -13.9194,0 -28.2808,-4.19795 V 486.4593 l 9.7215,0.22095 q 18.1175,0 26.9552,-5.52362 9.0587,-5.52361 14.1405,-18.33839 l 7.512,-19.66406 -83.7379,-239.72479 h 68.7138 z"
     style="font-style:normal;font-variant:normal;font-weight:bold;font-stretch:normal;font-size:374.13827515px;line-height:1.25;font-family:Roboto;-inkscape-font-specification:'Roboto Bold';letter-spacing:0px;word-spacing:0px;fill:#ffffff;fill-opacity:1;stroke:none;stroke-width:35.86325073;stroke-miterlimit:4;stroke-dasharray:none;paint-order:stroke fill markers"
     id="path869"
     inkscape:connector-curvature="0" /><path
     d="m 1501.2403,358.09054 q 0,-18.78028 -13.2567,-28.72278 -13.2566,-10.16345 -47.724,-21.21067 -34.4673,-11.26817 -54.5733,-22.09445 -54.7942,-29.60657 -54.7942,-79.76097 0,-26.07146 14.5823,-46.39835 14.8034,-20.54784 42.2005,-32.03695 27.6181,-11.48912 61.8644,-11.48912 34.4673,0 61.4225,12.59384 26.9553,12.37288 41.7587,35.13017 15.0241,22.75728 15.0241,51.70102 h -66.2833 q 0,-22.09445 -13.9195,-34.2464 -13.9196,-12.37289 -39.1072,-12.37289 -24.3039,0 -37.7815,10.38439 -13.4777,10.16344 -13.4777,26.95523 0,15.68706 15.6871,26.29239 15.908,10.60534 46.6193,19.88502 56.5618,17.01272 82.4123,42.20039 25.8505,25.18768 25.8505,62.74824 0,41.75852 -31.595,65.62053 -31.5951,23.64105 -85.0637,23.64105 -37.1186,0 -67.609,-13.47762 -30.4903,-13.69855 -46.6193,-37.33961 -15.908,-23.64106 -15.908,-54.79424 h 66.5043 q 0,53.24763 63.632,53.24763 23.6411,0 36.8977,-9.50062 13.2567,-9.72155 13.2567,-26.95523 z"
     style="font-style:normal;font-variant:normal;font-weight:bold;font-stretch:normal;font-size:374.13827515px;line-height:1.25;font-family:Roboto;-inkscape-font-specification:'Roboto Bold';letter-spacing:0px;word-spacing:0px;fill:#ffffff;fill-opacity:1;stroke:none;stroke-width:11.31235981"
     id="path871"
     inkscape:connector-curvature="0" /><path
     d="m 1685.0662,144.65815 v 58.77124 h 40.8747 v 46.84023 h -40.8747 v 119.31003 q 0,13.25668 5.0818,19.00124 5.0816,5.74455 19.443,5.74455 10.6054,0 18.7803,-1.54661 v 48.38685 q -18.7803,5.74455 -38.6653,5.74455 -67.1672,0 -68.4928,-67.82996 V 250.26962 h -34.9093 v -46.84023 h 34.9093 v -58.77124 z"
     style="font-style:normal;font-variant:normal;font-weight:bold;font-stretch:normal;font-size:374.13827515px;line-height:1.25;font-family:Roboto;-inkscape-font-specification:'Roboto Bold';letter-spacing:0px;word-spacing:0px;fill:#ffffff;fill-opacity:1;stroke:none;stroke-width:11.31235981"
     id="path873"
     inkscape:connector-curvature="0" /><path
     d="m 1904.685,418.18745 q -23.641,28.72278 -65.3995,28.72278 -38.4444,0 -58.7713,-22.09445 -20.1059,-22.09445 -20.5477,-64.73674 V 203.42939 h 63.8528 V 357.8696 q 0,37.33962 34.0255,37.33962 32.4788,0 44.6308,-22.53634 V 203.42939 h 64.074 v 239.06196 h -60.097 z"
     style="font-style:normal;font-variant:normal;font-weight:bold;font-stretch:normal;font-size:374.13827515px;line-height:1.25;font-family:Roboto;-inkscape-font-specification:'Roboto Bold';letter-spacing:0px;word-spacing:0px;fill:#ffffff;fill-opacity:1;stroke:none;stroke-width:11.31235981"
     id="path875"
     inkscape:connector-curvature="0" /><path
     d="m 2114.5823,395.43016 q 17.6756,0 28.7228,-9.72155 11.0473,-9.72156 11.4891,-25.85051 h 59.876 q -0.2209,24.30389 -13.2567,44.63079 -13.0357,20.10595 -35.7929,31.37412 -22.5365,11.04722 -49.9336,11.04722 -51.259,0 -80.8657,-32.47884 -29.6065,-32.69979 -29.6065,-90.14536 v -4.19794 q 0,-55.23614 29.3856,-88.15687 29.3856,-32.92073 80.6448,-32.92073 44.8518,0 71.807,25.62957 27.1761,25.40862 27.618,67.82996 h -59.876 q -0.4418,-18.55933 -11.4891,-30.04845 -11.0472,-11.71006 -29.1647,-11.71006 -22.3153,0 -33.8044,16.34989 -11.2682,16.12895 -11.2682,52.5848 v 6.62833 q 0,36.89774 11.2682,53.02668 11.2681,16.12895 34.2463,16.12895 z"
     style="font-style:normal;font-variant:normal;font-weight:bold;font-stretch:normal;font-size:374.13827515px;line-height:1.25;font-family:Roboto;-inkscape-font-specification:'Roboto Bold';letter-spacing:0px;word-spacing:0px;fill:#ffffff;fill-opacity:1;stroke:none;stroke-width:11.31235981"
     id="path877"
     inkscape:connector-curvature="0" /><path
     d="m 2337.9573,346.60143 -22.9782,22.97822 v 72.9117 h -63.853 V 103.12058 h 63.853 v 188.02377 l 12.3728,-15.90799 61.2017,-71.80697 h 76.6678 l -86.3894,99.64597 93.9014,139.41599 h -73.3536 z"
     style="font-style:normal;font-variant:normal;font-weight:bold;font-stretch:normal;font-size:374.13827515px;line-height:1.25;font-family:Roboto;-inkscape-font-specification:'Roboto Bold';letter-spacing:0px;word-spacing:0px;fill:#ffffff;fill-opacity:1;stroke:none;stroke-width:11.31235981"
     id="path879"
     inkscape:connector-curvature="0" /></g></svg>